<svg version="1.1" id="Layer_1" xmlns="http://www.w3.org/2000/svg" xmlns:xlink="http://www.w3.org/1999/xlink" x="0px"
  y="0px" width="100%" viewBox="0 0 483 516" enable-background="new 0 0 483 516" xml:space="preserve">
  <path fill="#000" opacity="1" stroke="none" d="
M1.000000,191.000000
	C1.000000,127.349121 1.000000,64.198242 1.000000,1.023680
	C161.943970,1.023680 322.887970,1.023680 483.915955,1.023680
	C483.915955,172.900940 483.915955,344.801941 483.915955,516.851440
	C323.000092,516.851440 162.000061,516.851440 1.000000,516.851440
	C1.000000,408.445221 1.000000,299.972626 1.000000,191.000000
M198.071426,87.931252
	C198.071426,87.931252 198.032532,87.936974 197.923248,87.438438
	C197.636261,87.283501 197.349274,87.128563 197.067017,86.924095
	C197.067017,86.924095 197.018799,86.936378 196.881256,86.464333
	C196.689758,86.159454 196.414017,86.004578 196.069260,85.940956
	C196.069260,85.940956 196.008591,85.942513 195.984192,85.261078
	C195.348785,84.827248 194.713364,84.393425 194.068802,83.892822
	C194.068802,83.892822 194.003174,83.908104 193.615021,83.235764
	C192.059906,83.201111 190.504776,83.166458 188.583313,83.000206
	C188.583313,83.000206 188.196854,82.953583 188.077332,82.086250
	C187.773972,79.495041 188.324341,76.290405 186.993149,74.437698
	C184.034439,70.319832 184.932846,67.265671 188.068436,64.076691
	C188.068436,64.076691 188.066574,63.999916 188.544632,63.853207
	C188.630356,63.555130 188.716095,63.257057 189.107483,62.373196
	C190.547028,59.033741 189.091370,55.131355 185.688385,54.666866
	C179.216400,53.783466 172.589630,53.889019 166.182755,52.726360
	C162.183014,52.000534 156.933350,50.760880 154.956787,47.886658
	C151.269150,42.524315 147.456161,42.442982 142.280396,44.031746
	C136.270142,45.876659 134.084076,48.557468 133.172562,55.010635
	C128.161499,56.673397 123.577225,59.859138 117.682571,57.747932
	C115.122635,56.831081 112.178513,57.912933 111.173805,61.281261
	C110.815308,62.483162 110.340401,63.650345 109.918625,64.833374
	C108.691185,64.139030 107.294868,63.633263 106.268600,62.714268
	C103.421776,60.164993 100.881927,55.859997 97.597534,62.165245
	C92.614662,57.647137 92.996078,57.723579 88.834587,62.652248
	C87.100815,64.705643 85.595032,66.951546 83.440674,69.840652
	C82.140213,68.158676 81.359261,66.819305 80.276360,65.801064
	C72.832130,58.801353 68.825943,58.531212 62.658024,65.904312
	C57.587234,71.965897 58.451214,75.545677 66.539467,77.989510
	C68.624672,81.475868 71.320915,84.752846 72.609154,88.512299
	C73.716049,91.742561 75.385193,92.264923 78.085785,91.874825
	C81.404434,91.395462 82.631180,92.005020 81.188347,95.740540
	C79.162796,100.984703 79.467873,105.749115 83.036140,110.966606
	C86.880104,116.587242 92.235023,118.276817 97.835480,120.488525
	C101.715828,122.020935 104.874924,122.902847 107.086868,118.204063
	C107.502304,117.321564 108.702309,116.638718 109.691307,116.223473
	C116.032982,113.560760 122.637077,116.675209 126.396835,124.097130
	C125.467438,124.978088 124.468765,125.846268 123.568146,126.806419
	C122.982056,127.431259 121.972954,128.592682 122.132446,128.816727
	C122.721489,129.644150 123.723495,130.734711 124.560265,130.726334
	C127.294083,130.699020 129.029129,131.442886 130.011917,134.270569
	C130.408051,135.410278 132.101868,136.452621 133.414215,136.851746
	C136.890823,137.909149 136.956070,140.087280 135.870102,142.924438
	C135.870102,142.924438 135.927429,142.965515 135.275574,143.218597
	C134.824036,144.463531 134.372513,145.708481 133.998795,146.975784
	C133.998795,146.975784 133.925339,146.936935 133.264130,147.114899
	C131.832275,148.699310 130.400436,150.283707 128.873459,151.868179
	C128.873459,151.868179 128.873444,151.963318 128.082764,151.922165
	C127.028244,151.991821 125.973717,152.061493 124.123634,151.971237
	C121.130066,151.990952 117.095612,150.811981 115.379196,152.302444
	C112.583633,154.730011 111.211586,158.858322 109.524628,162.404861
	C109.358185,162.754776 111.094063,164.163315 112.088898,164.884827
	C116.095757,167.790787 119.948059,171.002945 124.259407,173.369827
	C128.584595,175.744370 133.388092,177.247711 138.318314,179.695526
	C139.531662,180.073044 140.745026,180.450562 142.392975,180.990005
	C142.392975,180.990005 142.849976,181.069016 142.938705,181.848129
	C141.761002,189.637817 145.144791,194.466446 152.357941,197.318237
	C154.088730,198.002533 156.049911,200.241959 156.358276,202.032547
	C158.107925,212.191971 167.012070,216.396515 172.949677,223.104355
	C176.675842,227.313904 181.355331,230.918335 182.273163,237.432541
	C182.743195,240.768539 185.188065,244.529190 187.870331,246.705063
	C193.546585,251.309769 200.015839,254.928085 205.995178,259.182434
	C206.562317,259.585938 205.965515,261.625397 205.192169,263.004822
	C200.785019,264.793030 199.806900,267.369995 203.378891,270.967133
	C205.064423,272.664520 206.612595,274.554352 208.508652,275.975983
	C213.801880,279.944794 214.141342,281.745483 210.428436,287.190460
	C209.767670,288.159485 209.549789,289.493469 209.340225,290.696014
	C208.549744,295.232391 207.881287,299.789978 207.102341,304.328491
	C206.247757,309.307678 202.383698,313.715363 206.490479,319.471649
	C209.192657,323.259216 209.879990,328.577728 211.057236,333.313202
	C211.521103,335.179108 211.659149,338.236145 210.576355,339.179932
	C206.383484,342.834625 208.436401,346.720551 209.290237,350.653992
	C210.489075,356.177002 212.891525,361.820068 207.339722,366.881866
	C202.933014,364.920319 199.268417,365.814514 196.922729,370.542328
	C196.585144,371.222778 195.706589,371.634857 194.330978,372.268402
	C190.175903,373.573761 185.959717,374.720581 181.904160,376.284058
	C180.735245,376.734711 179.598267,378.244934 179.186493,379.510162
	C177.587631,384.422913 176.922073,384.685120 172.103500,382.682770
	C170.621796,382.067078 168.465530,381.937347 167.027740,382.548615
	C160.533508,385.309418 162.094284,397.387848 167.581802,399.925629
	C171.338913,401.663147 172.875549,403.979797 169.409286,409.012939
	C167.077118,407.639954 164.768692,406.098755 162.295761,404.895630
	C160.886063,404.209747 159.152710,403.605499 157.661041,403.780792
	C153.128677,404.313446 148.590637,405.035522 144.172150,406.149353
	C142.899933,406.470062 141.500900,408.198975 141.065536,409.569855
	C139.758652,413.684967 137.450806,416.253571 133.038696,417.050690
	C129.984482,417.602509 127.035378,418.736115 122.748360,419.986145
	C125.052734,422.457336 126.076363,424.184631 127.592110,425.050049
	C130.784851,426.873016 134.120987,428.613678 137.612793,429.696075
	C141.046082,430.760345 140.624100,433.028320 138.946106,434.342407
	C133.313507,438.753601 133.981018,444.741028 133.295120,451.227173
	C133.181213,457.405579 133.017914,463.584015 133.022690,469.762329
	C133.023224,470.450592 133.979843,471.138153 135.154449,471.970367
	C142.710342,473.200684 146.457382,467.598633 150.975098,463.261688
	C153.774841,460.573944 156.539322,457.659332 159.833740,455.719757
	C165.348633,452.472870 172.412735,451.683929 175.822769,445.176666
	C175.986511,444.864166 177.083801,445.040863 178.081711,445.671997
	C178.683334,445.689941 179.371506,445.908752 179.872421,445.692963
	C182.904709,444.386688 183.417389,441.722321 184.435959,438.790192
	C186.495544,432.861389 189.764954,427.352905 192.853607,421.018677
	C193.059067,420.992798 194.749313,420.226196 195.869110,420.729279
	C202.963837,423.916779 207.879623,419.662292 213.022507,416.053772
	C213.022507,416.053772 213.052261,416.059143 213.758820,416.000244
	C215.552719,415.009735 217.346603,414.019196 219.899582,413.005798
	C221.602493,411.976196 223.408432,411.080780 224.977127,409.876312
	C226.336716,408.832428 227.236191,407.121613 228.670929,406.255219
	C234.049835,403.007080 239.571854,399.996582 245.025208,396.870819
	C247.114105,395.673462 249.896805,394.890686 251.093262,393.079834
	C254.848373,387.396515 259.952789,382.079193 258.020477,374.149628
	C257.484222,371.948944 257.732147,369.484406 257.980408,367.179688
	C258.595673,361.467896 257.270050,355.232605 262.564850,350.692383
	C263.336731,350.030518 263.241943,347.835632 262.908264,346.511353
	C262.120453,343.384705 260.551056,340.423798 260.005219,337.273315
	C258.503113,328.603668 260.326202,319.572906 257.017395,311.039093
	C255.607101,307.401825 255.127029,303.413086 253.852997,299.711823
	C251.424225,292.655884 250.248596,284.403076 245.713516,279.054596
	C241.248199,273.788391 237.875137,268.003326 233.849045,262.574707
	C230.910248,258.612122 228.178238,254.272690 224.467209,251.157837
	C218.661179,246.284515 212.019333,242.420517 205.908920,237.889725
	C203.410324,236.037048 201.318436,233.614059 199.146317,231.349960
	C197.500320,229.634247 196.095963,227.686920 194.453003,225.967957
	C188.450302,219.687561 181.366669,213.964996 181.128998,204.314316
	C181.043686,200.850159 179.792480,198.763794 177.105087,197.009216
	C173.313782,194.533920 168.789932,192.578125 166.083023,189.196487
	C162.680222,184.945480 160.604111,179.562469 158.386505,174.479874
	C157.800232,173.136215 158.653671,171.063065 159.096313,169.391129
	C160.329315,164.734039 161.532318,160.057724 163.059418,155.493469
	C164.193314,152.104401 165.002075,147.999161 167.403549,145.779144
	C171.339218,142.140869 176.579346,139.953796 181.001617,136.781464
	C182.692368,135.568604 184.889908,133.188156 184.707855,131.583542
	C184.118225,126.386459 187.668518,123.264252 190.018982,119.803055
	C191.749420,117.254868 195.223511,115.890778 198.303680,114.608879
	C199.909332,114.073914 201.514984,113.538948 203.630142,112.968658
	C204.030716,112.731987 204.431305,112.495316 205.552032,112.054344
	C208.650833,110.278511 210.648453,107.874268 210.811417,103.945648
	C212.534073,102.718597 214.256729,101.491539 216.728455,100.052109
	C218.742416,99.052376 220.756393,98.052643 222.981293,96.948204
	C221.354797,93.902954 219.021988,92.383797 215.450668,92.976768
	C212.726379,93.429092 209.984756,93.776970 206.498062,94.022560
	C203.945877,92.376488 201.393692,90.730415 198.914566,88.547394
	C198.632568,88.355080 198.350571,88.162766 198.071426,87.931252
M385.483887,288.752991
	C386.602722,288.775909 387.721588,288.798828 389.715454,288.933716
	C398.165741,289.216095 399.111694,287.978699 396.964600,279.509216
	C396.822266,278.947906 396.975555,278.301849 396.793243,277.762146
	C396.134735,275.812561 395.817200,272.669250 394.582886,272.239349
	C392.611786,271.552826 390.010101,272.676758 387.473724,272.981262
	C387.473724,272.981262 387.259735,272.983795 386.786804,272.367249
	C382.296387,273.748016 375.564331,267.922913 373.572998,275.842682
	C372.502808,273.499237 371.205994,270.659546 369.909210,267.819885
	C369.321838,267.807159 368.734467,267.794403 368.147125,267.781677
	C366.793182,270.691223 365.439240,273.600800 364.590851,275.423950
	C362.852753,273.965637 360.698547,270.768677 358.096344,270.348907
	C355.249207,269.889587 351.988068,271.996857 348.310791,273.032349
	C347.912231,273.022919 347.513702,273.013489 346.622925,272.415344
	C343.419312,271.565338 341.920563,272.750824 342.025513,276.107452
	C342.118530,279.082642 341.788422,282.098663 342.185699,285.023224
	C342.346405,286.206238 343.907806,288.086823 344.890137,288.124390
	C350.682648,288.345795 356.495148,287.976013 362.295410,288.088654
	C366.474548,288.169769 370.642761,288.728546 374.820465,289.003845
	C377.362671,289.171387 380.051544,289.504364 381.106750,286.835388
	C382.353271,287.451691 383.599823,288.068024 385.483887,288.752991
M326.679840,467.179413
	C329.326019,469.285156 332.040497,469.424713 334.879791,467.539276
	C335.492737,467.132294 336.734070,466.535828 336.854736,466.687561
	C341.081665,472.003143 345.946442,465.190216 350.725250,467.521606
	C353.788635,469.016083 358.145813,467.577484 361.722534,468.364655
	C367.476196,469.630920 370.591431,467.323212 370.052765,461.546234
	C369.831543,459.173492 370.593750,456.508087 369.750122,454.450836
	C368.904938,452.389771 366.570892,449.448761 364.967590,449.496918
	C361.549988,449.599548 358.261871,450.662537 354.563385,450.601440
	C350.884094,450.540649 347.657104,449.896606 344.337524,448.784241
	C343.013611,448.340576 341.730255,447.577148 340.383240,447.454041
	C338.883423,447.316956 337.332123,447.743378 335.803223,447.924500
	C331.474152,449.294373 327.080872,450.561066 322.656189,450.682343
	C317.154449,450.833069 311.626770,450.037384 305.595215,449.614319
	C305.970734,455.749359 306.302216,461.165070 306.712219,467.863708
	C309.435822,465.855713 311.235046,464.529236 313.351105,462.969147
	C314.046204,464.587708 314.708282,466.129333 315.590729,468.184143
	C319.036255,467.705719 322.576813,467.214081 326.679840,467.179413
M341.315002,444.964172
	C344.027313,444.732788 346.744995,444.550079 349.450134,444.253204
	C351.314423,444.048615 354.555023,444.070709 354.761353,443.323486
	C355.449188,440.832611 355.517212,437.913239 354.844330,435.422394
	C354.548279,434.326569 351.938965,433.741425 350.297333,433.156219
	C348.738434,432.600494 347.071686,432.347351 345.023224,431.858795
	C344.224396,432.292725 342.451935,434.004089 341.527740,433.628387
	C337.452576,431.971954 335.186951,433.179230 334.040894,437.839844
	C333.071167,432.608124 330.053467,432.726013 326.235443,433.061920
	C321.047821,433.518402 315.782166,433.024414 310.552246,433.098633
	C308.682404,433.125183 305.280121,433.403839 305.205688,433.935425
	C304.761322,437.109070 304.799805,440.442474 305.376343,443.594269
	C305.501587,444.278992 308.485596,444.806763 310.142700,444.779724
	C316.165100,444.681458 322.326202,443.430481 328.151550,444.370544
	C331.912964,444.977509 333.377563,444.265411 335.091644,439.620239
	C334.685516,445.711182 337.879517,444.863953 341.315002,444.964172
M386.374023,265.154449
	C387.785706,264.816498 389.243408,264.075623 390.598816,264.230408
	C392.916351,264.494995 395.455750,266.246429 397.371063,265.654785
	C399.351562,265.042969 400.699890,262.384674 402.646698,260.272278
	C407.585388,269.495483 416.048553,265.087402 423.625702,265.436340
	C424.027679,259.874817 425.093689,255.150833 417.421326,254.519089
	C414.928467,254.313828 412.802399,252.327255 410.272461,254.673767
	C409.916260,255.004150 408.564087,254.147293 407.647705,254.016251
	C406.533142,253.856888 405.227173,253.496994 404.289520,253.895523
	C399.242920,256.040466 394.708923,254.722534 391.041199,252.961609
	C386.786438,253.639496 383.186676,254.237137 379.578461,254.778549
	C377.512878,255.088501 375.433563,255.306961 373.360443,255.566605
	C373.776611,258.723175 373.937164,261.949280 374.765625,264.993622
	C375.012146,265.899384 377.146637,266.839020 378.393066,266.808990
	C380.860504,266.749542 383.311890,266.025177 386.374023,265.154449
M421.989044,275.672180
	C420.432983,274.109009 419.100586,272.013031 417.219757,271.223663
	C416.371063,270.867462 414.430054,273.113861 412.854614,274.275269
	C411.807831,270.026947 407.531097,269.534210 404.373291,271.743927
	C401.052734,274.067505 402.232330,278.073029 404.568695,280.402863
	C403.778717,282.979309 403.164703,284.981903 402.550690,286.984467
	C404.793396,287.666992 407.026794,288.383514 409.286957,289.002258
	C409.717743,289.120178 410.254608,288.772247 410.742004,288.774139
	C414.067505,288.786926 417.442505,289.175018 420.692993,288.699768
	C421.929932,288.518921 423.808380,286.357452 423.776611,285.140808
	C423.701263,282.251465 422.659363,279.387329 421.989044,275.672180
M392.208191,450.756683
	C385.967285,447.283508 387.188538,453.549957 385.074860,456.442627
	C385.618561,452.004822 383.482849,450.365509 379.798065,450.093781
	C375.959137,449.810638 374.815918,452.372101 373.915039,455.340149
	C373.411926,456.997772 372.766846,458.612305 372.421997,459.581848
	C373.082855,461.065216 373.986969,462.158295 373.982788,463.247894
	C373.965088,467.901886 377.345703,468.673248 380.629486,468.768433
	C384.688019,468.886047 388.791656,468.383148 392.825653,467.800903
	C393.936981,467.640472 395.832642,466.090668 395.730042,465.434692
	C394.984467,460.668945 393.819702,455.968811 392.208191,450.756683
z" />
  <path fill="#CF181D" opacity="1.000000" stroke="none" d="
M204.831879,112.258636
	C204.431305,112.495316 204.030716,112.731987 202.988693,112.986023
	C200.871704,113.335281 199.396179,113.667168 197.920639,113.999054
	C195.223511,115.890778 191.749420,117.254868 190.018982,119.803055
	C187.668518,123.264252 184.118225,126.386459 184.707855,131.583542
	C184.889908,133.188156 182.692368,135.568604 181.001617,136.781464
	C176.579346,139.953796 171.339218,142.140869 167.403549,145.779144
	C165.002075,147.999161 164.193314,152.104401 163.059418,155.493469
	C161.532318,160.057724 160.329315,164.734039 159.096313,169.391129
	C158.653671,171.063065 157.800232,173.136215 158.386505,174.479874
	C160.604111,179.562469 162.680222,184.945480 166.083023,189.196487
	C168.789932,192.578125 173.313782,194.533920 177.105087,197.009216
	C179.792480,198.763794 181.043686,200.850159 181.128998,204.314316
	C181.366669,213.964996 188.450302,219.687561 194.453003,225.967957
	C196.095963,227.686920 197.500320,229.634247 199.146317,231.349960
	C201.318436,233.614059 203.410324,236.037048 205.908920,237.889725
	C212.019333,242.420517 218.661179,246.284515 224.467209,251.157837
	C228.178238,254.272690 230.910248,258.612122 233.849045,262.574707
	C237.875137,268.003326 241.248199,273.788391 245.713516,279.054596
	C250.248596,284.403076 251.424225,292.655884 253.852997,299.711823
	C255.127029,303.413086 255.607101,307.401825 257.017395,311.039093
	C260.326202,319.572906 258.503113,328.603668 260.005219,337.273315
	C260.551056,340.423798 262.120453,343.384705 262.908264,346.511353
	C263.241943,347.835632 263.336731,350.030518 262.564850,350.692383
	C257.270050,355.232605 258.595673,361.467896 257.980408,367.179688
	C257.732147,369.484406 257.484222,371.948944 258.020477,374.149628
	C259.952789,382.079193 254.848373,387.396515 251.093262,393.079834
	C249.896805,394.890686 247.114105,395.673462 245.025208,396.870819
	C239.571854,399.996582 234.049835,403.007080 228.670929,406.255219
	C227.236191,407.121613 226.336716,408.832428 224.977127,409.876312
	C223.408432,411.080780 221.602493,411.976196 219.230591,412.925171
	C216.725143,413.916107 214.888702,414.987610 213.052261,416.059143
	C213.052261,416.059143 213.022507,416.053772 212.633331,416.020142
	C211.442581,415.958344 210.641006,415.930176 210.009644,415.604645
	C215.594345,411.506226 220.893906,407.525604 226.460403,403.962006
	C230.768433,401.204071 235.371750,398.893951 239.912140,396.515228
	C249.910110,391.277222 254.106979,382.848389 254.171265,371.806641
	C254.202118,366.505371 253.281326,360.188568 255.760101,356.156799
	C259.169098,350.611969 258.074066,346.175964 257.235596,340.709442
	C255.585892,329.953857 256.886017,318.845428 252.954483,308.304047
	C249.718231,299.626862 247.054459,290.736115 244.043427,281.671875
	C243.667969,280.913605 243.386063,280.423523 242.885437,279.676086
	C240.208588,276.572205 237.647675,273.806946 235.316116,270.860260
	C231.725800,266.322723 228.539658,261.439667 224.692001,257.141937
	C222.676620,254.890839 219.388626,253.832245 217.076920,251.782257
	C212.132401,247.397507 207.418228,242.750076 202.666901,238.151138
	C197.222458,232.881317 191.464722,227.868149 186.561066,222.129944
	C183.229294,218.231125 179.393051,213.462326 178.890671,208.751129
	C178.134125,201.656479 174.167221,198.407791 169.214325,194.838348
	C166.209122,192.672562 163.139709,189.921204 161.468140,186.718414
	C157.864929,179.814590 153.087006,172.794144 157.589050,164.341019
	C157.762329,164.015701 157.386261,163.397842 157.296265,162.536987
	C157.616394,160.150742 157.906448,158.143799 158.357101,155.816727
	C161.497284,149.180496 163.467438,142.168304 171.151031,139.384720
	C172.546417,138.879211 173.303635,136.612122 174.512604,135.053284
	C174.868973,134.789459 175.035477,134.601608 175.519531,134.256744
	C182.190979,132.636032 181.079483,127.591171 181.094421,123.083176
	C181.050934,123.060913 181.131378,123.093857 181.432129,122.955772
	C183.362366,120.992477 185.359421,119.377098 186.545776,117.298927
	C189.113434,112.801048 193.074478,110.779472 197.888077,110.590721
	C201.223068,110.459953 202.685776,109.024635 203.280609,105.706535
	C204.507492,104.148155 205.588272,102.899582 206.583862,101.586433
	C207.243591,100.716278 207.781311,99.753601 208.373642,98.832336
	C207.329239,98.170456 206.323959,97.433723 205.231903,96.863037
	C203.250290,95.827515 201.093536,95.079659 199.236572,93.865135
	C196.909439,92.343117 194.686432,90.606293 192.644257,88.718010
	C189.999252,86.272301 187.577026,83.585686 185.316574,81.171768
	C186.448456,81.878372 187.322647,82.415977 188.196854,82.953583
	C188.196854,82.953583 188.583313,83.000206 189.108490,83.206741
	C191.090164,83.578224 192.546677,83.743164 194.003174,83.908104
	C194.003174,83.908104 194.068802,83.892822 194.180984,84.192604
	C194.864975,84.975761 195.436783,85.459137 196.008591,85.942505
	C196.008591,85.942513 196.069260,85.940956 196.195892,86.152374
	C196.522537,86.593636 196.754639,86.784500 197.018799,86.936378
	C197.018799,86.936378 197.067017,86.924095 197.200500,87.134155
	C197.536179,87.577911 197.769028,87.775505 198.032532,87.936974
	C198.032532,87.936974 198.071426,87.931252 198.168488,88.155846
	C198.422211,88.643974 198.614212,88.878609 198.841507,89.084343
	C201.393692,90.730415 203.945877,92.376488 207.218689,94.237213
	C210.834213,94.826981 213.729141,95.202087 217.038483,95.630905
	C216.620163,97.461037 216.299774,98.862762 215.979401,100.264481
	C214.256729,101.491539 212.534073,102.718597 210.126434,104.079575
	C207.904938,106.895218 206.368408,109.576927 204.831879,112.258636
z" />
  <path fill="#B02532" opacity="1.000000" stroke="none" d="
M326.398621,466.950928
	C322.576813,467.214081 319.036255,467.705719 315.590729,468.184143
	C314.708282,466.129333 314.046204,464.587708 313.351105,462.969147
	C311.235046,464.529236 309.435822,465.855713 306.712219,467.863708
	C306.302216,461.165070 305.970734,455.749359 305.595215,449.614319
	C311.626770,450.037384 317.154449,450.833069 322.656189,450.682343
	C327.080872,450.561066 331.474152,449.294373 335.803223,447.924500
	C337.332123,447.743378 338.883423,447.316956 340.383240,447.454041
	C341.730255,447.577148 343.013611,448.340576 344.337524,448.784241
	C347.657104,449.896606 350.884094,450.540649 354.563385,450.601440
	C358.261871,450.662537 361.549988,449.599548 364.967590,449.496918
	C366.570892,449.448761 368.904938,452.389771 369.750122,454.450836
	C370.593750,456.508087 369.831543,459.173492 370.052765,461.546234
	C370.591431,467.323212 367.476196,469.630920 361.722534,468.364655
	C358.145813,467.577484 353.788635,469.016083 350.725250,467.521606
	C345.946442,465.190216 341.081665,472.003143 336.854736,466.687561
	C336.734070,466.535828 335.492737,467.132294 334.879791,467.539276
	C332.040497,469.424713 329.326019,469.285156 326.398621,466.950928
M361.437897,454.382416
	C358.376343,459.467255 358.633911,461.164001 363.663544,464.879425
	C364.085846,464.875763 364.508118,464.872070 365.454010,465.061127
	C366.157715,464.589111 366.861450,464.117096 367.565186,463.645081
	C366.709381,462.800049 365.853577,461.955017 364.848450,460.544525
	C364.913605,458.794067 365.140778,457.030579 365.001526,455.296539
	C364.839508,453.279053 364.001526,452.100189 361.437897,454.382416
M321.548096,463.540405
	C323.831512,460.456665 323.544403,455.660095 320.437408,452.638458
	C318.881378,452.807312 316.061188,452.737274 315.976685,453.184265
	C315.468445,455.873505 315.006226,458.853027 315.750793,461.374512
	C316.104797,462.573364 319.158997,462.974884 321.548096,463.540405
M355.154663,454.140839
	C352.786621,453.759399 350.418579,453.377960 346.358948,452.724060
	C347.885986,455.280151 348.658478,456.792999 349.647491,458.147766
	C350.259155,458.985565 351.217255,459.564758 351.989532,460.292175
	C353.389587,461.610962 354.767059,462.953705 356.153931,464.286469
	C356.651031,462.206665 357.476196,460.134155 357.522583,458.044342
	C357.550598,456.784210 356.367798,455.497223 355.154663,454.140839
M336.404633,462.024139
	C336.654449,458.820526 336.904266,455.616882 337.154053,452.413269
	C336.414459,452.426086 335.674835,452.438904 334.935211,452.451752
	C335.284332,455.713531 335.633423,458.975342 336.404633,462.024139
M341.631927,455.242950
	C341.413239,455.024078 341.212982,454.779053 340.963806,454.603424
	C340.895569,454.555328 340.555817,454.707367 340.551117,454.780945
	C340.375671,457.544983 340.224854,460.310577 340.070740,463.075958
	C340.624084,463.093964 341.177460,463.111969 341.730804,463.129974
	C341.730804,460.684753 341.730804,458.239563 341.631927,455.242950
M349.343445,462.482544
	C349.132629,462.446991 348.921783,462.411469 348.710968,462.375916
	C348.899872,462.478424 349.088745,462.580902 349.343445,462.482544
z" />
  <path fill="#CF181D" opacity="1.000000" stroke="none" d="
M177.746338,444.989746
	C177.083801,445.040863 175.986511,444.864166 175.822769,445.176666
	C172.412735,451.683929 165.348633,452.472870 159.833740,455.719757
	C156.539322,457.659332 153.774841,460.573944 150.975098,463.261688
	C146.457382,467.598633 142.710342,473.200684 134.822952,471.563843
	C134.338516,464.331116 134.185562,457.504913 134.032608,450.678741
	C133.981018,444.741028 133.313507,438.753601 138.946106,434.342407
	C140.624100,433.028320 141.046082,430.760345 137.612793,429.696075
	C134.120987,428.613678 130.784851,426.873016 127.592110,425.050049
	C126.076363,424.184631 125.052734,422.457336 122.748360,419.986145
	C127.035378,418.736115 129.984482,417.602509 133.038696,417.050690
	C137.450806,416.253571 139.758652,413.684967 141.065536,409.569855
	C141.500900,408.198975 142.899933,406.470062 144.172150,406.149353
	C148.590637,405.035522 153.128677,404.313446 157.661041,403.780792
	C159.152710,403.605499 160.886063,404.209747 162.295761,404.895630
	C164.768692,406.098755 167.077118,407.639954 169.409286,409.012939
	C172.875549,403.979797 171.338913,401.663147 167.581802,399.925629
	C162.094284,397.387848 160.533508,385.309418 167.027740,382.548615
	C168.465530,381.937347 170.621796,382.067078 172.103500,382.682770
	C176.922073,384.685120 177.587631,384.422913 179.186493,379.510162
	C179.598267,378.244934 180.735245,376.734711 181.904160,376.284058
	C185.959717,374.720581 190.175903,373.573761 194.700684,372.428040
	C195.070374,372.587677 195.059799,373.004120 194.891846,373.302856
	C191.779968,375.324585 188.836075,377.047577 185.683838,378.800598
	C185.475479,378.830627 185.069672,378.942749 184.825043,379.083130
	C184.286514,379.459961 183.992615,379.696381 183.440994,380.098877
	C182.777695,381.175995 182.372116,382.087036 181.720734,383.251984
	C178.557220,384.205627 175.582489,384.731232 172.740479,385.662109
	C170.604843,386.361664 167.601624,387.109802 166.879913,388.697723
	C166.100967,390.411560 167.152679,393.307007 168.128098,395.340546
	C168.735809,396.607452 170.681961,397.232330 172.232056,398.209290
	C172.436661,398.273254 172.860443,398.338348 173.027496,398.635010
	C175.522964,402.408783 175.596725,406.580444 172.855499,409.028290
	C171.136871,410.563049 167.121475,409.596893 164.136734,409.593689
	C163.371704,409.592865 162.604065,408.996399 161.843170,408.661011
	C157.294357,406.655914 147.856384,408.658752 144.146164,412.075531
	C140.048233,415.849457 135.689697,419.340424 131.068069,423.275208
	C132.846817,424.185242 135.490768,425.672455 138.244370,426.917114
	C143.143082,429.131348 144.082275,433.769867 140.530548,437.851257
	C139.161621,439.424347 137.358994,441.342041 137.268524,443.177338
	C136.925201,450.143188 137.075668,457.144592 137.352234,464.120331
	C137.407715,465.519348 138.614716,467.745728 139.670776,467.997650
	C140.832016,468.274628 142.868958,467.047241 143.758774,465.887787
	C146.383606,462.467438 148.630005,458.756683 151.343964,455.106750
	C152.453430,454.725769 153.243423,454.397614 154.314178,453.908600
	C155.819504,453.282288 157.029892,452.774536 158.271118,452.358856
	C163.188736,450.711853 168.484985,450.087036 171.844254,445.088104
	C172.779922,443.695709 175.940094,443.798187 178.034988,443.513062
	C177.908936,444.204132 177.827637,444.596924 177.746338,444.989746
z" />
  <path fill="#B02532" opacity="1.000000" stroke="none" d="
M340.900085,444.961914
	C337.879517,444.863953 334.685516,445.711182 335.091644,439.620239
	C333.377563,444.265411 331.912964,444.977509 328.151550,444.370544
	C322.326202,443.430481 316.165100,444.681458 310.142700,444.779724
	C308.485596,444.806763 305.501587,444.278992 305.376343,443.594269
	C304.799805,440.442474 304.761322,437.109070 305.205688,433.935425
	C305.280121,433.403839 308.682404,433.125183 310.552246,433.098633
	C315.782166,433.024414 321.047821,433.518402 326.235443,433.061920
	C330.053467,432.726013 333.071167,432.608124 334.040894,437.839844
	C335.186951,433.179230 337.452576,431.971954 341.527740,433.628387
	C342.451935,434.004089 344.224396,432.292725 345.023224,431.858795
	C347.071686,432.347351 348.738434,432.600494 350.297333,433.156219
	C351.938965,433.741425 354.548279,434.326569 354.844330,435.422394
	C355.517212,437.913239 355.449188,440.832611 354.761353,443.323486
	C354.555023,444.070709 351.314423,444.048615 349.450134,444.253204
	C346.744995,444.550079 344.027313,444.732788 340.900085,444.961914
z" />
  <path fill="#B02532" opacity="1.000000" stroke="none" d="
M386.071960,265.365051
	C383.311890,266.025177 380.860504,266.749542 378.393066,266.808990
	C377.146637,266.839020 375.012146,265.899384 374.765625,264.993622
	C373.937164,261.949280 373.776611,258.723175 373.360443,255.566605
	C375.433563,255.306961 377.512878,255.088501 379.578461,254.778549
	C383.186676,254.237137 386.786438,253.639496 391.041199,252.961609
	C394.708923,254.722534 399.242920,256.040466 404.289520,253.895523
	C405.227173,253.496994 406.533142,253.856888 407.647705,254.016251
	C408.564087,254.147293 409.916260,255.004150 410.272461,254.673767
	C412.802399,252.327255 414.928467,254.313828 417.421326,254.519089
	C425.093689,255.150833 424.027679,259.874817 423.625702,265.436340
	C416.048553,265.087402 407.585388,269.495483 402.646698,260.272278
	C400.699890,262.384674 399.351562,265.042969 397.371063,265.654785
	C395.455750,266.246429 392.916351,264.494995 390.598816,264.230408
	C389.243408,264.075623 387.785706,264.816498 386.071960,265.365051
z" />
  <path fill="#B02532" opacity="1.000000" stroke="none" d="
M381.017303,286.163788
	C380.051544,289.504364 377.362671,289.171387 374.820465,289.003845
	C370.642761,288.728546 366.474548,288.169769 362.295410,288.088654
	C356.495148,287.976013 350.682648,288.345795 344.890137,288.124390
	C343.907806,288.086823 342.346405,286.206238 342.185699,285.023224
	C341.788422,282.098663 342.118530,279.082642 342.025513,276.107452
	C341.920563,272.750824 343.419312,271.565338 346.682007,273.018921
	C345.870880,275.748444 344.496582,277.832214 344.313660,280.015778
	C344.198181,281.394135 345.548004,283.608154 346.817200,284.190460
	C348.104034,284.780823 350.465454,284.299469 351.658020,283.380951
	C352.461151,282.762421 352.511017,280.418152 352.081268,279.115234
	C351.369690,276.957764 349.999847,275.017395 348.907349,272.985535
	C351.988068,271.996857 355.249207,269.889587 358.096344,270.348907
	C360.698547,270.768677 362.852753,273.965637 364.590851,275.423950
	C365.439240,273.600800 366.793182,270.691223 368.147125,267.781677
	C368.734467,267.794403 369.321838,267.807159 369.909210,267.819885
	C371.205994,270.659546 372.502808,273.499237 373.572998,275.842682
	C375.564331,267.922913 382.296387,273.748016 386.743561,272.907166
	C386.115326,275.216614 385.530334,276.986176 384.701294,278.552673
	C382.227600,276.853485 379.997894,275.357391 376.800781,273.212158
	C376.070374,277.456299 375.562256,280.408722 375.185822,282.596039
	C377.656403,284.107574 379.336853,285.135681 381.017303,286.163788
M358.266266,284.782379
	C358.665405,281.248474 359.064545,277.714569 359.463654,274.180664
	C358.793518,274.153015 358.123413,274.125366 357.453278,274.097717
	C354.821655,277.454987 356.945648,281.019806 358.266266,284.782379
z" />
  <path fill="#CB2129" opacity="1.000000" stroke="none" d="
M195.059814,373.004150
	C195.059799,373.004120 195.070374,372.587677 195.074371,372.379395
	C195.706589,371.634857 196.585144,371.222778 196.922729,370.542328
	C199.268417,365.814514 202.933014,364.920319 207.339722,366.881866
	C212.891525,361.820068 210.489075,356.177002 209.290237,350.653992
	C208.436401,346.720551 206.383484,342.834625 210.576355,339.179932
	C211.659149,338.236145 211.521103,335.179108 211.057236,333.313202
	C209.879990,328.577728 209.192657,323.259216 206.490479,319.471649
	C202.383698,313.715363 206.247757,309.307678 207.102341,304.328491
	C207.881287,299.789978 208.549744,295.232391 209.340225,290.696014
	C209.549789,289.493469 209.767670,288.159485 210.428436,287.190460
	C214.141342,281.745483 213.801880,279.944794 208.508652,275.975983
	C206.612595,274.554352 205.064423,272.664520 203.378891,270.967133
	C199.806900,267.369995 200.785019,264.793030 205.679977,263.084473
	C206.167786,263.164154 206.426544,263.422913 206.254440,263.726868
	C203.556915,268.859894 207.995071,270.661316 210.096359,273.580414
	C212.134842,276.412262 215.374435,279.622864 215.234894,282.530273
	C214.905762,289.388031 214.105209,296.738647 211.247849,302.836884
	C207.115967,311.655151 208.884293,319.163086 212.675537,327.024811
	C214.719177,331.262634 215.236374,335.599823 213.226547,340.005463
	C211.044312,344.789032 210.961731,349.400574 213.040085,354.400604
	C214.921112,358.925934 211.709625,366.931061 207.992325,368.369720
	C203.723083,370.022003 199.374130,371.468353 195.059814,373.004150
z" />
  <path fill="#CB2129" opacity="1.000000" stroke="none" d="
M135.910629,142.866714
	C136.956070,140.087280 136.890823,137.909149 133.414215,136.851746
	C132.101868,136.452621 130.408051,135.410278 130.011917,134.270569
	C129.029129,131.442886 127.294083,130.699020 124.560265,130.726334
	C123.723495,130.734711 122.721489,129.644150 122.132446,128.816727
	C121.972954,128.592682 122.982056,127.431259 123.568146,126.806419
	C124.468765,125.846268 125.467438,124.978088 126.396835,124.097130
	C122.637077,116.675209 116.032982,113.560760 109.691307,116.223473
	C108.702309,116.638718 107.502304,117.321564 107.086868,118.204063
	C104.874924,122.902847 101.715828,122.020935 97.835480,120.488525
	C92.235023,118.276817 86.880104,116.587242 83.036140,110.966606
	C79.467873,105.749115 79.162796,100.984703 81.188347,95.740540
	C82.631180,92.005020 81.404434,91.395462 78.085785,91.874825
	C75.385193,92.264923 73.716049,91.742561 72.609154,88.512299
	C71.320915,84.752846 68.624672,81.475868 66.554398,77.594696
	C66.569336,77.199883 66.992035,77.008987 67.301224,77.145096
	C69.194633,79.082710 70.746857,80.913757 72.373726,82.675888
	C73.561005,83.961876 74.684212,85.408089 76.123131,86.339058
	C78.889305,88.128731 81.859169,89.603584 84.759903,91.509018
	C84.841431,92.203865 84.907608,92.598701 84.861786,93.360992
	C84.174324,95.806770 83.726250,97.931053 82.996704,99.953819
	C81.509995,104.075974 82.259575,107.445091 85.955383,110.016998
	C85.954376,110.040810 86.001633,110.047119 86.141098,110.357826
	C88.252075,115.943451 93.466805,115.810188 97.595398,117.596985
	C101.314812,119.206696 103.967651,118.446304 106.008049,115.043289
	C106.029800,115.049072 106.040031,115.005241 106.405869,114.941399
	C113.341209,111.357887 119.425339,111.901917 125.176682,117.215240
	C125.885063,117.614143 126.376350,117.847679 127.068001,118.366318
	C128.060425,120.081940 129.704590,121.647446 129.502899,122.920532
	C128.394272,129.918686 133.508163,132.409363 137.990341,135.816132
	C138.096680,138.647507 139.966476,141.687729 135.910629,142.866714
z" />
  <path fill="#CB2129" opacity="1.000000" stroke="none" d="
M66.353989,77.285919
	C58.451214,75.545677 57.587234,71.965897 62.658024,65.904312
	C68.825943,58.531212 72.832130,58.801353 80.276360,65.801064
	C81.359261,66.819305 82.140213,68.158676 83.440674,69.840652
	C85.595032,66.951546 87.100815,64.705643 88.834587,62.652248
	C92.996078,57.723579 92.614662,57.647137 97.597534,62.165245
	C100.881927,55.859997 103.421776,60.164993 106.268600,62.714268
	C107.294868,63.633263 108.691185,64.139030 109.918625,64.833374
	C110.340401,63.650345 110.815308,62.483162 111.173805,61.281261
	C112.178513,57.912933 115.122635,56.831081 117.682571,57.747932
	C123.577225,59.859138 128.161499,56.673397 133.557175,55.289421
	C133.950516,56.024307 133.959244,56.480408 133.936279,57.250862
	C133.875687,57.984032 133.846771,58.402851 133.613632,58.855003
	C133.409409,58.888332 133.007812,58.988377 132.630157,58.984375
	C129.814713,60.299652 127.376915,61.618927 124.972076,62.943161
	C125.005028,62.948120 124.947525,62.912441 124.594711,62.944122
	C119.017250,62.288765 114.377617,63.079334 111.153656,67.863182
	C110.760620,68.446396 109.713127,68.588554 108.643517,68.879051
	C107.659752,68.778961 107.001404,68.734940 106.194382,68.367279
	C104.658592,67.016762 103.403358,65.546532 101.848373,65.083946
	C100.194290,64.591881 98.027359,65.616554 96.487190,64.989510
	C92.611702,63.411701 90.519257,65.018822 87.959137,67.766235
	C86.536049,69.293434 83.436775,69.258705 81.083649,69.922638
	C81.074348,69.917351 81.053780,69.922783 80.855148,69.659760
	C79.287018,68.186661 77.998993,66.866013 76.533516,65.786201
	C71.040787,61.738983 65.385429,63.976368 64.724236,70.747879
	C64.529510,72.742088 66.184662,74.916931 66.992035,77.008987
	C66.992035,77.008987 66.569336,77.199883 66.353989,77.285919
z" />
  <path fill="#B02532" opacity="1.000000" stroke="none" d="
M421.998535,276.092590
	C422.659363,279.387329 423.701263,282.251465 423.776611,285.140808
	C423.808380,286.357452 421.929932,288.518921 420.692993,288.699768
	C417.442505,289.175018 414.067505,288.786926 410.742004,288.774139
	C410.254608,288.772247 409.717743,289.120178 409.286957,289.002258
	C407.026794,288.383514 404.793396,287.666992 402.550690,286.984467
	C403.164703,284.981903 403.778717,282.979309 404.568695,280.402863
	C402.232330,278.073029 401.052734,274.067505 404.373291,271.743927
	C407.531097,269.534210 411.807831,270.026947 412.854614,274.275269
	C414.430054,273.113861 416.371063,270.867462 417.219757,271.223663
	C419.100586,272.013031 420.432983,274.109009 421.998535,276.092590
z" />
  <path fill="#B02532" opacity="1.000000" stroke="none" d="
M392.497833,451.002319
	C393.819702,455.968811 394.984467,460.668945 395.730042,465.434692
	C395.832642,466.090668 393.936981,467.640472 392.825653,467.800903
	C388.791656,468.383148 384.688019,468.886047 380.629486,468.768433
	C377.345703,468.673248 373.965088,467.901886 373.982788,463.247894
	C373.986969,462.158295 373.082855,461.065216 372.421997,459.581848
	C372.766846,458.612305 373.411926,456.997772 373.915039,455.340149
	C374.815918,452.372101 375.959137,449.810638 379.798065,450.093781
	C383.482849,450.365509 385.618561,452.004822 385.074860,456.442627
	C387.188538,453.549957 385.967285,447.283508 392.497833,451.002319
M391.180969,459.708740
	C390.104279,459.576294 389.027618,459.443878 387.950928,459.311432
	C387.925262,460.881073 387.671326,462.503540 388.014709,463.987823
	C388.116089,464.426086 389.904266,464.474152 390.919464,464.701019
	C391.149689,463.181427 391.379913,461.661804 391.180969,459.708740
z" />
  <path fill="#CF181D" opacity="1.000000" stroke="none" d="
M133.967972,56.936512
	C133.959244,56.480408 133.950516,56.024307 133.935974,55.226501
	C134.084076,48.557468 136.270142,45.876659 142.280396,44.031746
	C147.456161,42.442982 151.269150,42.524315 154.956787,47.886658
	C156.933350,50.760880 162.183014,52.000534 166.182755,52.726360
	C172.589630,53.889019 179.216400,53.783466 185.688385,54.666866
	C189.091370,55.131355 190.547028,59.033741 188.813751,62.827263
	C188.339630,63.502399 188.188477,63.741924 188.066574,63.999916
	C188.066574,63.999916 188.068436,64.076691 187.668243,64.107010
	C183.308472,65.190758 182.832336,68.055824 183.463852,71.481155
	C183.878204,73.728592 184.321182,75.970749 184.530609,77.957947
	C180.961105,73.754227 180.695480,69.462410 182.131454,64.575127
	C182.638870,62.848240 181.765381,59.117119 180.783356,58.830185
	C176.717117,57.642067 171.977936,56.063305 168.208618,57.145432
	C161.535614,59.061176 157.924896,54.345726 154.053543,51.624111
	C146.797485,46.522995 147.238419,45.895798 138.680603,50.073780
	C136.921173,52.490788 135.444580,54.713650 133.967972,56.936512
z" />
  <path fill="#CB2129" opacity="1.000000" stroke="none" d="
M206.038437,263.034729
	C205.965515,261.625397 206.562317,259.585938 205.995178,259.182434
	C200.015839,254.928085 193.546585,251.309769 187.870331,246.705063
	C185.188065,244.529190 182.743195,240.768539 182.273163,237.432541
	C181.355331,230.918335 176.675842,227.313904 172.949677,223.104355
	C167.012070,216.396515 158.107925,212.191971 156.358276,202.032547
	C156.049911,200.241959 154.088730,198.002533 152.357941,197.318237
	C145.144791,194.466446 141.761002,189.637817 143.061096,181.279388
	C143.466309,180.312897 143.749130,179.915146 144.239410,179.751160
	C144.731842,181.865570 144.664963,183.895401 145.384262,185.591858
	C146.461960,188.133575 147.665985,192.041092 149.567078,192.547104
	C155.181961,194.041656 156.531708,198.432495 159.108246,202.515503
	C162.873779,208.482681 166.779785,215.003723 172.278336,219.034576
	C176.801590,222.350449 180.458847,225.850204 182.491531,230.591553
	C184.979538,236.394928 185.928040,242.308075 193.184967,245.264496
	C198.034576,247.240219 201.380112,252.664658 205.800598,256.015656
	C209.185638,258.581757 209.904312,260.631744 206.426544,263.422913
	C206.426544,263.422913 206.167786,263.164154 206.038437,263.034729
z" />
  <path fill="#CF181D" opacity="1.000000" stroke="none" d="
M144.031952,179.517395
	C143.749130,179.915146 143.466309,180.312897 143.016724,180.889832
	C142.849976,181.069016 142.392975,180.990005 142.124176,180.675812
	C140.564224,179.952026 139.273087,179.542450 137.981949,179.132858
	C133.388092,177.247711 128.584595,175.744370 124.259407,173.369827
	C119.948059,171.002945 116.095757,167.790787 112.088898,164.884827
	C111.094063,164.163315 109.358185,162.754776 109.524628,162.404861
	C111.211586,158.858322 112.583633,154.730011 115.379196,152.302444
	C117.095612,150.811981 121.130066,151.990952 124.704376,152.282257
	C126.481224,152.383301 127.677330,152.173309 128.873444,151.963318
	C128.873444,151.963318 128.873459,151.868179 129.254578,151.812439
	C131.065567,150.150116 132.495453,148.543533 133.925339,146.936935
	C133.925339,146.936935 133.998795,146.975784 134.223328,146.763153
	C134.941055,145.355499 135.434235,144.160507 135.927429,142.965515
	C135.927429,142.965515 135.870102,142.924438 135.890366,142.895569
	C139.966476,141.687729 138.096680,138.647507 138.220245,135.752960
	C138.426071,135.337143 138.892792,135.239288 139.068024,135.510773
	C141.892075,138.909302 141.630051,141.953888 139.132477,145.064850
	C138.233551,146.184555 137.638351,147.548111 136.643402,149.016632
	C134.553619,150.905869 132.936615,152.955902 130.832031,154.137375
	C129.017426,155.156021 126.269302,156.137344 124.595047,155.471848
	C119.809891,153.569809 118.099899,155.324799 117.578384,160.095917
	C118.628250,162.310883 119.807167,164.227066 121.305389,166.233093
	C128.385071,171.008499 134.516769,176.798157 143.007584,178.455444
	C143.403076,178.532654 143.692917,179.151047 144.031952,179.517395
z" />
  <path fill="#B02532" opacity="1.000000" stroke="none" d="
M387.675049,273.035248
	C390.010101,272.676758 392.611786,271.552826 394.582886,272.239349
	C395.817200,272.669250 396.134735,275.812561 396.793243,277.762146
	C396.975555,278.301849 396.822266,278.947906 396.964600,279.509216
	C399.111694,287.978699 398.165741,289.216095 389.199585,288.482849
	C388.347473,283.033081 388.011261,278.034180 387.675049,273.035248
z" />
  <path fill="#CB2129" opacity="1.000000" stroke="none" d="
M177.914032,445.330872
	C177.827637,444.596924 177.908936,444.204132 178.338348,443.341522
	C181.471146,437.136688 185.062180,431.632904 186.793457,425.595795
	C188.261627,420.476196 190.726685,417.658295 196.349258,417.612183
	C200.850357,417.575256 205.343033,416.510590 209.839447,415.902039
	C210.641006,415.930176 211.442581,415.958344 212.642380,416.033752
	C207.879623,419.662292 202.963837,423.916779 195.869110,420.729279
	C194.749313,420.226196 193.059067,420.992798 192.853607,421.018677
	C189.764954,427.352905 186.495544,432.861389 184.435959,438.790192
	C183.417389,441.722321 182.904709,444.386688 179.872421,445.692963
	C179.371506,445.908752 178.683334,445.689941 177.914032,445.330872
z" />
  <path fill="#CF181D" opacity="1.000000" stroke="none" d="
M381.062012,286.499573
	C379.336853,285.135681 377.656403,284.107574 375.185822,282.596039
	C375.562256,280.408722 376.070374,277.456299 376.800781,273.212158
	C379.997894,275.357391 382.227600,276.853485 384.719849,279.024872
	C384.937042,282.694855 384.891693,285.689606 384.846344,288.684326
	C383.599823,288.068024 382.353271,287.451691 381.062012,286.499573
z" />
  <path fill="#CB2129" opacity="1.000000" stroke="none" d="
M348.609070,273.008942
	C349.999847,275.017395 351.369690,276.957764 352.081268,279.115234
	C352.511017,280.418152 352.461151,282.762421 351.658020,283.380951
	C350.465454,284.299469 348.104034,284.780823 346.817200,284.190460
	C345.548004,283.608154 344.198181,281.394135 344.313660,280.015778
	C344.496582,277.832214 345.870880,275.748444 346.928101,273.313293
	C347.513702,273.013489 347.912231,273.022919 348.609070,273.008942
z" />
  <path fill="#CB2129" opacity="1.000000" stroke="none" d="
M385.165100,288.718658
	C384.891693,285.689606 384.937042,282.694855 384.963867,279.227936
	C385.530334,276.986176 386.115326,275.216614 386.980042,273.215424
	C387.259735,272.983795 387.473724,272.981262 387.574402,273.008240
	C388.011261,278.034180 388.347473,283.033081 388.762054,288.426880
	C387.721588,288.798828 386.602722,288.775909 385.165100,288.718658
z" />
  <path fill="#CB2129" opacity="1.000000" stroke="none" d="
M184.751343,78.215271
	C184.321182,75.970749 183.878204,73.728592 183.463852,71.481155
	C182.832336,68.055824 183.308472,65.190758 187.629852,64.107971
	C184.932846,67.265671 184.034439,70.319832 186.993149,74.437698
	C188.324341,76.290405 187.773972,79.495041 188.137085,82.519920
	C187.322647,82.415977 186.448456,81.878372 185.241211,80.827980
	C184.855896,79.615219 184.803619,78.915245 184.751343,78.215271
z" />
  <path fill="#B02532" opacity="1.000000" stroke="none" d="
M216.353912,100.158295
	C216.299774,98.862762 216.620163,97.461037 217.038483,95.630905
	C213.729141,95.202087 210.834213,94.826981 207.595062,94.311600
	C209.984756,93.776970 212.726379,93.429092 215.450668,92.976768
	C219.021988,92.383797 221.354797,93.902954 222.981293,96.948204
	C220.756393,98.052643 218.742416,99.052376 216.353912,100.158295
z" />
  <path fill="#CB2129" opacity="1.000000" stroke="none" d="
M205.191956,112.156494
	C206.368408,109.576927 207.904938,106.895218 209.785324,104.123611
	C210.648453,107.874268 208.650833,110.278511 205.191956,112.156494
z" />
  <path fill="#B02532" opacity="1.000000" stroke="none" d="
M133.663864,450.952942
	C134.185562,457.504913 134.338516,464.331116 134.492264,471.491638
	C133.979843,471.138153 133.023224,470.450592 133.022690,469.762329
	C133.017914,463.584015 133.181213,457.405579 133.663864,450.952942
z" />
  <path fill="#CB2129" opacity="1.000000" stroke="none" d="
M133.594727,147.025909
	C132.495453,148.543533 131.065567,150.150116 129.302124,151.812408
	C130.400436,150.283707 131.832275,148.699310 133.594727,147.025909
z" />
  <path fill="#CB2129" opacity="1.000000" stroke="none" d="
M213.405548,416.029694
	C214.888702,414.987610 216.725143,413.916107 218.851044,412.936646
	C217.346603,414.019196 215.552719,415.009735 213.405548,416.029694
z" />
  <path fill="#CB2129" opacity="1.000000" stroke="none" d="
M198.112152,114.303970
	C199.396179,113.667168 200.871704,113.335281 202.733948,113.003693
	C201.514984,113.538948 199.909332,114.073914 198.112152,114.303970
z" />
  <path fill="#CB2129" opacity="1.000000" stroke="none" d="
M128.478104,151.942734
	C127.677330,152.173309 126.481224,152.383301 125.102158,152.362228
	C125.973717,152.061493 127.028244,151.991821 128.478104,151.942734
z" />
  <path fill="#CB2129" opacity="1.000000" stroke="none" d="
M138.150131,179.414185
	C139.273087,179.542450 140.564224,179.952026 141.906860,180.594849
	C140.745026,180.450562 139.531662,180.073044 138.150131,179.414185
z" />
  <path fill="#CB2129" opacity="1.000000" stroke="none" d="
M135.601501,143.092056
	C135.434235,144.160507 134.941055,145.355499 134.184433,146.751953
	C134.372513,145.708481 134.824036,144.463531 135.601501,143.092056
z" />
  <path fill="#CB2129" opacity="1.000000" stroke="none" d="
M193.809097,83.571930
	C192.546677,83.743164 191.090164,83.578224 189.291656,83.272545
	C190.504776,83.166458 192.059906,83.201111 193.809097,83.571930
z" />
  <path fill="#CB2129" opacity="1.000000" stroke="none" d="
M195.996399,85.601791
	C195.436783,85.459137 194.864975,84.975761 194.185562,84.225990
	C194.713364,84.393425 195.348785,84.827248 195.996399,85.601791
z" />
  <path fill="#CB2129" opacity="1.000000" stroke="none" d="
M196.950027,86.700356
	C196.754639,86.784500 196.522537,86.593636 196.188263,86.181747
	C196.414017,86.004578 196.689758,86.159454 196.950027,86.700356
z" />
  <path fill="#CB2129" opacity="1.000000" stroke="none" d="
M197.977890,87.687706
	C197.769028,87.775505 197.536179,87.577911 197.198120,87.158920
	C197.349274,87.128563 197.636261,87.283501 197.977890,87.687706
z" />
  <path fill="#CB2129" opacity="1.000000" stroke="none" d="
M198.878036,88.815872
	C198.614212,88.878609 198.422211,88.643974 198.167053,88.175446
	C198.350571,88.162766 198.632568,88.355080 198.878036,88.815872
z" />
  <path fill="#CB2129" opacity="1.000000" stroke="none" d="
M188.305603,63.926559
	C188.188477,63.741924 188.339630,63.502399 188.660919,63.120155
	C188.716095,63.257057 188.630356,63.555130 188.305603,63.926559
z" />
  <path fill="#FC0101" opacity="1.000000" stroke="none" d="
M181.966537,382.998077
	C182.372116,382.087036 182.777695,381.175995 183.679382,379.943970
	C184.473572,379.396240 184.771622,379.169495 185.069672,378.942749
	C185.069672,378.942749 185.475479,378.830627 185.916901,379.058472
	C187.398163,379.689697 188.496002,380.546722 189.468369,380.422424
	C195.524811,379.647980 200.138779,375.219757 206.527893,374.303436
	C211.244431,373.626953 215.248184,369.184265 215.095276,362.508148
	C214.954819,356.376373 216.435608,350.198883 217.313049,344.057404
	C217.590439,342.115875 217.729187,339.871887 218.792526,338.380188
	C221.602371,334.438385 220.726212,330.597778 218.636368,327.127747
	C209.876633,312.583008 216.180237,298.579956 219.092010,283.993866
	C221.190094,284.478302 222.522736,284.786011 224.320526,285.201111
	C224.083755,284.090271 224.127838,283.375092 223.804489,282.922394
	C220.515182,278.317413 217.126511,273.783203 213.849808,269.169403
	C212.146881,266.771576 212.096039,264.001587 214.878387,262.831451
	C216.709732,262.061249 219.805267,262.234680 221.372375,263.344452
	C224.285980,265.407806 226.295380,268.699097 229.046524,271.052063
	C233.277222,274.670380 235.904175,280.983582 243.104141,279.933441
	C243.386063,280.423523 243.667969,280.913605 243.793106,281.912720
	C243.653030,284.561646 243.435730,286.736603 243.750076,288.831787
	C244.087296,291.079437 245.032593,293.228699 245.515579,295.463440
	C246.097275,298.154846 246.471527,300.891083 247.045364,304.250549
	C247.018387,304.267609 245.995468,304.914551 244.541183,305.834290
	C248.030609,308.086609 249.139877,310.608887 247.019730,314.035370
	C246.663742,314.610687 247.411362,315.818146 247.530655,316.748657
	C247.793427,318.798065 248.477081,320.951019 248.109482,322.895447
	C246.777649,329.940186 244.981003,336.846313 249.297424,343.626770
	C251.745285,347.472015 251.493851,351.691345 249.984467,356.344208
	C248.293381,355.166290 247.097931,354.333557 245.833710,353.452972
	C243.257980,359.425476 247.252411,362.726685 250.802887,366.317078
	C240.704025,372.061798 248.153732,381.386383 246.096283,386.516388
	C240.744202,389.757996 236.828354,391.957855 233.097977,394.436737
	C229.238220,397.001556 225.609039,399.911102 221.784653,402.532166
	C218.452393,404.815918 215.132477,407.192413 211.543457,409.006256
	C207.796555,410.899902 203.789581,413.289917 199.799149,413.486053
	C190.736145,413.931488 183.923904,418.100342 180.343430,426.465210
	C178.965454,429.684509 176.323349,432.347412 174.804031,435.525269
	C172.808792,439.698486 170.047852,442.442535 165.311371,442.973450
	C164.773865,443.033722 164.326431,443.813873 163.818741,444.238068
	C161.574600,446.113129 159.220047,447.872070 157.114822,449.891296
	C155.884048,451.071716 155.047379,452.663025 154.033417,454.069489
	C153.243423,454.397614 152.453430,454.725769 151.333344,454.698120
	C150.971634,451.660461 150.645203,449.370331 147.062683,449.208618
	C146.172577,449.168427 144.998672,447.826599 144.568069,446.820709
	C143.746384,444.901123 143.365570,442.792847 142.559036,439.889038
	C149.496994,439.165009 148.265488,434.437592 147.460175,429.567413
	C146.980911,426.669220 147.213028,423.615234 147.445847,420.656525
	C147.536728,419.501617 148.252914,417.740448 149.119705,417.414948
	C152.969360,415.969482 156.909348,414.532349 160.944305,413.870789
	C166.104187,413.024689 171.420181,413.163635 176.605972,412.432129
	C180.863968,411.831451 181.770416,408.970764 179.545456,405.183899
	C178.412354,403.255341 177.488419,401.150818 176.816971,399.016663
	C175.847717,395.936035 174.625427,395.964447 172.860443,398.338348
	C172.860443,398.338348 172.436661,398.273254 172.091370,397.897522
	C169.994293,391.999390 172.111359,389.094971 177.788116,389.232697
	C181.624374,389.325775 183.398804,386.678162 181.966537,382.998077
M219.951141,292.415619
	C220.797943,292.221130 221.644745,292.026642 222.491547,291.832153
	C222.145844,291.173035 221.800140,290.513885 221.454453,289.854767
	C220.870087,290.544708 220.285721,291.234680 219.951141,292.415619
z" />
  <path fill="#FB0202" opacity="1.000000" stroke="none" d="
M184.530594,77.957947
	C184.803619,78.915245 184.855896,79.615219 184.983521,80.658981
	C187.577026,83.585686 189.999252,86.272301 192.644257,88.718010
	C194.686432,90.606293 196.909439,92.343117 199.236572,93.865135
	C201.093536,95.079659 203.250290,95.827515 205.231903,96.863037
	C206.323959,97.433723 207.329239,98.170456 208.373642,98.832336
	C207.781311,99.753601 207.243591,100.716278 206.583862,101.586433
	C205.588272,102.899582 204.507492,104.148155 202.974747,105.828568
	C200.568542,106.354462 198.650635,106.477867 196.732468,106.597153
	C187.931076,107.144478 180.821350,109.499298 181.023178,119.607689
	C181.046371,120.770004 181.094711,121.931816 181.131378,123.093857
	C181.131378,123.093857 181.050934,123.060913 180.760269,123.196350
	C178.702820,127.016106 176.936050,130.700424 175.169266,134.384735
	C175.035477,134.601608 174.868973,134.789459 174.119095,135.078033
	C169.156525,136.857941 164.717545,138.441742 160.357559,140.219254
	C159.569473,140.540558 158.617401,141.629044 158.572464,142.411133
	C158.309921,146.978485 158.295013,151.560059 158.196503,156.136841
	C157.906448,158.143799 157.616394,160.150742 156.945709,162.680481
	C154.794235,164.999054 152.597992,166.542053 151.347153,168.646881
	C149.197098,172.264801 146.509399,173.338211 142.655884,171.960922
	C140.332916,171.130707 137.966125,170.413879 135.676651,169.501511
	C132.823959,168.364670 129.265564,167.771393 127.388336,165.697495
	C124.464790,162.467651 122.926994,163.123154 120.986076,166.143234
	C119.807167,164.227066 118.628250,162.310883 117.939835,160.241104
	C121.236267,159.562286 124.106224,158.374741 126.835907,158.638565
	C134.409164,159.370468 135.441605,153.993851 136.904541,148.800400
	C137.638351,147.548111 138.233551,146.184555 139.132477,145.064850
	C141.630051,141.953888 141.892075,138.909302 139.106110,135.100525
	C139.202576,131.373215 139.283752,128.303543 139.759232,125.296211
	C139.909317,124.347015 140.946350,123.141838 141.865128,122.775673
	C147.213562,120.644135 152.647659,118.727554 158.340790,116.856659
	C159.469193,117.557152 160.309601,118.139313 161.054749,119.066864
	C160.901627,121.590714 156.630585,124.099579 161.044403,125.657822
	C161.919067,125.966614 164.124893,122.551224 165.681763,120.821663
	C165.872742,120.609489 165.845276,120.200706 165.961639,119.923592
	C166.004257,119.964142 165.909927,119.897461 166.294540,119.940285
	C168.594467,119.602577 170.509766,119.222054 172.425079,118.841522
	C171.511261,116.631187 170.744049,114.340469 169.600983,112.255844
	C169.221222,111.563309 167.876312,111.400024 166.870667,110.667648
	C166.501251,109.230820 166.233795,108.121101 166.385590,107.008560
	C168.946533,106.592163 171.088226,106.178596 173.229904,105.765022
	C173.146774,105.328926 173.063629,104.892822 172.980484,104.456718
	C170.936890,103.237480 168.893280,102.018242 167.072891,100.550751
	C170.090714,98.214310 172.949463,96.204376 175.645004,93.995285
	C176.583115,93.226463 177.786362,91.861534 177.646347,90.958290
	C177.509308,90.074348 175.903625,88.990494 174.788162,88.767822
	C171.721237,88.155594 168.497711,87.344910 165.475220,87.723412
	C160.942291,88.291061 159.074982,86.475807 158.187454,82.380859
	C157.704956,80.154724 156.819672,77.911308 155.622620,75.981819
	C154.839523,74.719597 152.923904,73.031319 151.959625,73.276978
	C150.543686,73.637695 149.033417,75.352638 148.415207,76.843773
	C143.979034,87.544327 143.744873,87.766937 132.274826,87.196747
	C131.278641,87.147232 130.280701,87.133263 128.938736,87.222626
	C125.132988,89.821724 125.072861,92.058159 129.221436,94.297493
	C134.130157,98.628326 139.537247,102.344467 136.692871,110.135475
	C133.209824,112.878326 130.038727,115.479767 126.867630,118.081223
	C126.376350,117.847679 125.885063,117.614143 125.273422,116.910202
	C124.739632,111.480736 120.470085,110.086197 117.032280,109.504150
	C112.660004,108.763901 108.168556,110.114616 106.040031,115.005241
	C106.040031,115.005241 106.029800,115.049072 105.599609,115.019073
	C98.780159,113.341759 92.390892,111.694443 86.001633,110.047119
	C86.001633,110.047119 85.954376,110.040810 85.925423,109.659790
	C86.065880,105.752342 85.345909,101.843628 86.651718,98.805656
	C87.990982,95.689873 87.519600,94.376701 84.973785,92.993546
	C84.907608,92.598701 84.841431,92.203865 84.870239,91.213287
	C83.435623,88.380325 82.319260,85.623085 80.291992,84.012177
	C75.823318,80.461258 72.012398,76.623695 69.528206,70.814674
	C73.921059,70.474739 77.487419,70.198753 81.053780,69.922775
	C81.053780,69.922783 81.074348,69.917351 81.032974,70.258545
	C80.510574,73.476730 80.914856,75.263214 84.561790,74.039520
	C87.470940,73.063370 91.249054,74.966255 93.422089,71.330872
	C93.587082,71.054832 94.882774,71.027771 95.218987,71.344933
	C100.324097,76.160751 103.059105,71.306366 106.343063,68.690918
	C107.001404,68.734940 107.659752,68.778961 108.851753,69.144516
	C110.289146,70.960899 111.192879,72.455765 112.708565,74.962868
	C117.028603,70.709373 120.988060,66.810905 124.947525,62.912437
	C124.947525,62.912441 125.005028,62.948120 125.352646,62.927559
	C128.136108,61.600792 130.571960,60.294582 133.007812,58.988373
	C133.007812,58.988377 133.409409,58.888332 133.889465,58.926807
	C140.417725,57.032703 140.600006,56.672180 138.963425,49.879635
	C147.238419,45.895798 146.797485,46.522995 154.053543,51.624111
	C157.924896,54.345726 161.535614,59.061176 168.208618,57.145432
	C171.977936,56.063305 176.717117,57.642067 180.783356,58.830185
	C181.765381,59.117119 182.638870,62.848240 182.131454,64.575127
	C180.695480,69.462410 180.961105,73.754227 184.530594,77.957947
M87.021301,81.712975
	C86.693687,81.086380 86.366074,80.459793 86.038460,79.833206
	C85.633659,80.224846 85.228851,80.616493 84.824051,81.008133
	C85.445000,81.349030 86.065956,81.689926 87.021301,81.712975
M168.618668,132.957916
	C168.731796,132.623688 168.844940,132.289474 168.958069,131.955246
	C168.815521,131.909851 168.672989,131.864456 168.530457,131.819061
	C168.464905,132.167313 168.399353,132.515579 168.618668,132.957916
z" />
  <path fill="#F60404" opacity="1.000000" stroke="none" d="
M121.305389,166.233093
	C122.926994,163.123154 124.464790,162.467651 127.388336,165.697495
	C129.265564,167.771393 132.823959,168.364670 135.676651,169.501511
	C137.966125,170.413879 140.332916,171.130707 142.655884,171.960922
	C146.509399,173.338211 149.197098,172.264801 151.347153,168.646881
	C152.597992,166.542053 154.794235,164.999054 156.915619,163.059784
	C157.386261,163.397842 157.762329,164.015701 157.589050,164.341019
	C153.087006,172.794144 157.864929,179.814590 161.468140,186.718414
	C163.139709,189.921204 166.209122,192.672562 169.214325,194.838348
	C174.167221,198.407791 178.134125,201.656479 178.890671,208.751129
	C179.393051,213.462326 183.229294,218.231125 186.561066,222.129944
	C191.464722,227.868149 197.222458,232.881317 202.666901,238.151138
	C207.418228,242.750076 212.132401,247.397507 217.076920,251.782257
	C219.388626,253.832245 222.676620,254.890839 224.692001,257.141937
	C228.539658,261.439667 231.725800,266.322723 235.316116,270.860260
	C237.647675,273.806946 240.208588,276.572205 242.885437,279.676086
	C235.904175,280.983582 233.277222,274.670380 229.046524,271.052063
	C226.295380,268.699097 224.285980,265.407806 221.372375,263.344452
	C219.805267,262.234680 216.709732,262.061249 214.878387,262.831451
	C212.096039,264.001587 212.146881,266.771576 213.849808,269.169403
	C217.126511,273.783203 220.515182,278.317413 223.804489,282.922394
	C224.127838,283.375092 224.083755,284.090271 224.320526,285.201111
	C222.522736,284.786011 221.190094,284.478302 219.092010,283.993866
	C216.180237,298.579956 209.876633,312.583008 218.636368,327.127747
	C220.726212,330.597778 221.602371,334.438385 218.792526,338.380188
	C217.729187,339.871887 217.590439,342.115875 217.313049,344.057404
	C216.435608,350.198883 214.954819,356.376373 215.095276,362.508148
	C215.248184,369.184265 211.244431,373.626953 206.527893,374.303436
	C200.138779,375.219757 195.524811,379.647980 189.468369,380.422424
	C188.496002,380.546722 187.398163,379.689697 186.125244,379.028442
	C188.836075,377.047577 191.779968,375.324585 194.891846,373.302856
	C199.374130,371.468353 203.723083,370.022003 207.992325,368.369720
	C211.709625,366.931061 214.921112,358.925934 213.040085,354.400604
	C210.961731,349.400574 211.044312,344.789032 213.226547,340.005463
	C215.236374,335.599823 214.719177,331.262634 212.675537,327.024811
	C208.884293,319.163086 207.115967,311.655151 211.247849,302.836884
	C214.105209,296.738647 214.905762,289.388031 215.234894,282.530273
	C215.374435,279.622864 212.134842,276.412262 210.096359,273.580414
	C207.995071,270.661316 203.556915,268.859894 206.254440,263.726868
	C209.904312,260.631744 209.185638,258.581757 205.800598,256.015656
	C201.380112,252.664658 198.034576,247.240219 193.184967,245.264496
	C185.928040,242.308075 184.979538,236.394928 182.491531,230.591553
	C180.458847,225.850204 176.801590,222.350449 172.278336,219.034576
	C166.779785,215.003723 162.873779,208.482681 159.108246,202.515503
	C156.531708,198.432495 155.181961,194.041656 149.567078,192.547104
	C147.665985,192.041092 146.461960,188.133575 145.384262,185.591858
	C144.664963,183.895401 144.731842,181.865570 144.239410,179.751160
	C143.692917,179.151047 143.403076,178.532654 143.007584,178.455444
	C134.516769,176.798157 128.385071,171.008499 121.305389,166.233093
z" />
  <path fill="#F60404" opacity="1.000000" stroke="none" d="
M154.314178,453.908600
	C155.047379,452.663025 155.884048,451.071716 157.114822,449.891296
	C159.220047,447.872070 161.574600,446.113129 163.818741,444.238068
	C164.326431,443.813873 164.773865,443.033722 165.311371,442.973450
	C170.047852,442.442535 172.808792,439.698486 174.804031,435.525269
	C176.323349,432.347412 178.965454,429.684509 180.343430,426.465210
	C183.923904,418.100342 190.736145,413.931488 199.799149,413.486053
	C203.789581,413.289917 207.796555,410.899902 211.543457,409.006256
	C215.132477,407.192413 218.452393,404.815918 221.784653,402.532166
	C225.609039,399.911102 229.238220,397.001556 233.097977,394.436737
	C236.828354,391.957855 240.744202,389.757996 246.096283,386.516388
	C248.153732,381.386383 240.704025,372.061798 250.802887,366.317078
	C247.252411,362.726685 243.257980,359.425476 245.833710,353.452972
	C247.097931,354.333557 248.293381,355.166290 249.984467,356.344208
	C251.493851,351.691345 251.745285,347.472015 249.297424,343.626770
	C244.981003,336.846313 246.777649,329.940186 248.109482,322.895447
	C248.477081,320.951019 247.793427,318.798065 247.530655,316.748657
	C247.411362,315.818146 246.663742,314.610687 247.019730,314.035370
	C249.139877,310.608887 248.030609,308.086609 244.541183,305.834290
	C245.995468,304.914551 247.018387,304.267609 247.045364,304.250549
	C246.471527,300.891083 246.097275,298.154846 245.515579,295.463440
	C245.032593,293.228699 244.087296,291.079437 243.750076,288.831787
	C243.435730,286.736603 243.653030,284.561646 243.886658,282.180908
	C247.054459,290.736115 249.718231,299.626862 252.954483,308.304047
	C256.886017,318.845428 255.585892,329.953857 257.235596,340.709442
	C258.074066,346.175964 259.169098,350.611969 255.760101,356.156799
	C253.281326,360.188568 254.202118,366.505371 254.171265,371.806641
	C254.106979,382.848389 249.910110,391.277222 239.912140,396.515228
	C235.371750,398.893951 230.768433,401.204071 226.460403,403.962006
	C220.893906,407.525604 215.594345,411.506226 210.009644,415.604675
	C205.343033,416.510590 200.850357,417.575256 196.349258,417.612183
	C190.726685,417.658295 188.261627,420.476196 186.793457,425.595795
	C185.062180,431.632904 181.471146,437.136688 178.383087,443.043274
	C175.940094,443.798187 172.779922,443.695709 171.844254,445.088104
	C168.484985,450.087036 163.188736,450.711853 158.271118,452.358856
	C157.029892,452.774536 155.819504,453.282288 154.314178,453.908600
z" />
  <path fill="#F60404" opacity="1.000000" stroke="none" d="
M181.432144,122.955772
	C181.094711,121.931816 181.046371,120.770004 181.023178,119.607689
	C180.821350,109.499298 187.931076,107.144478 196.732468,106.597153
	C198.650635,106.477867 200.568542,106.354462 202.792435,106.110931
	C202.685776,109.024635 201.223068,110.459953 197.888077,110.590721
	C193.074478,110.779472 189.113434,112.801048 186.545776,117.298927
	C185.359421,119.377098 183.362366,120.992477 181.432144,122.955772
z" />
  <path fill="#F60404" opacity="1.000000" stroke="none" d="
M158.357086,155.816727
	C158.295013,151.560059 158.309921,146.978485 158.572464,142.411133
	C158.617401,141.629044 159.569473,140.540558 160.357559,140.219254
	C164.717545,138.441742 169.156525,136.857941 173.961945,135.183014
	C173.303635,136.612122 172.546417,138.879211 171.151031,139.384720
	C163.467438,142.168304 161.497284,149.180496 158.357086,155.816727
z" />
  <path fill="#F60404" opacity="1.000000" stroke="none" d="
M175.519531,134.256744
	C176.936050,130.700424 178.702820,127.016106 180.803772,123.218613
	C181.079483,127.591171 182.190979,132.636032 175.519531,134.256744
z" />
  <path fill="#CF181D" opacity="1.000000" stroke="none" d="
M355.441864,454.181580
	C356.367798,455.497223 357.550598,456.784210 357.522583,458.044342
	C357.476196,460.134155 356.651031,462.206665 356.153931,464.286469
	C354.767059,462.953705 353.389587,461.610962 351.989532,460.292175
	C351.217255,459.564758 350.259155,458.985565 349.647491,458.147766
	C348.658478,456.792999 347.885986,455.280151 346.358948,452.724060
	C350.418579,453.377960 352.786621,453.759399 355.441864,454.181580
z" />
  <path fill="#CB2129" opacity="1.000000" stroke="none" d="
M320.990021,463.737610
	C319.158997,462.974884 316.104797,462.573364 315.750793,461.374512
	C315.006226,458.853027 315.468445,455.873505 315.976685,453.184265
	C316.061188,452.737274 318.881378,452.807312 320.688141,453.242523
	C320.955933,457.143585 320.972961,460.440582 320.990021,463.737610
z" />
  <path fill="#CB2129" opacity="1.000000" stroke="none" d="
M364.930420,464.868378
	C364.508118,464.872070 364.085846,464.875763 363.305298,464.503784
	C362.622711,460.736145 362.298340,457.344116 361.973999,453.952087
	C364.001526,452.100189 364.839508,453.279053 365.001526,455.296539
	C365.140778,457.030579 364.913605,458.794067 364.928162,461.202271
	C364.982056,462.862793 364.956238,463.865601 364.930420,464.868378
z" />
  <path fill="#CF181D" opacity="1.000000" stroke="none" d="
M361.705933,454.167236
	C362.298340,457.344116 362.622711,460.736145 362.988586,464.499664
	C358.633911,461.164001 358.376343,459.467255 361.705933,454.167236
z" />
  <path fill="#CF181D" opacity="1.000000" stroke="none" d="
M321.269043,463.638977
	C320.972961,460.440582 320.955933,457.143585 320.929749,453.452820
	C323.544403,455.660095 323.831512,460.456665 321.269043,463.638977
z" />
  <path fill="#CB2129" opacity="1.000000" stroke="none" d="
M336.193604,462.130646
	C335.633423,458.975342 335.284332,455.713531 334.935211,452.451752
	C335.674835,452.438904 336.414459,452.426086 337.154053,452.413269
	C336.904266,455.616882 336.654449,458.820526 336.193604,462.130646
z" />
  <path fill="#CB2129" opacity="1.000000" stroke="none" d="
M341.681366,455.518646
	C341.730804,458.239563 341.730804,460.684753 341.730804,463.129974
	C341.177460,463.111969 340.624084,463.093964 340.070740,463.075958
	C340.224854,460.310577 340.375671,457.544983 340.551117,454.780945
	C340.555817,454.707367 340.895569,454.555328 340.963806,454.603424
	C341.212982,454.779053 341.413239,455.024078 341.681366,455.518646
z" />
  <path fill="#CF181D" opacity="1.000000" stroke="none" d="
M365.192200,464.964752
	C364.956238,463.865601 364.982056,462.862793 365.002808,461.484985
	C365.853577,461.955017 366.709381,462.800049 367.565186,463.645081
	C366.861450,464.117096 366.157715,464.589111 365.192200,464.964752
z" />
  <path fill="#CF181D" opacity="1.000000" stroke="none" d="
M349.310547,462.582977
	C349.088745,462.580902 348.899872,462.478424 348.710968,462.375916
	C348.921783,462.411469 349.132629,462.446991 349.310547,462.582977
z" />
  <path fill="#F60404" opacity="1.000000" stroke="none" d="
M173.027496,398.635010
	C174.625427,395.964447 175.847717,395.936035 176.816971,399.016663
	C177.488419,401.150818 178.412354,403.255341 179.545456,405.183899
	C181.770416,408.970764 180.863968,411.831451 176.605972,412.432129
	C171.420181,413.163635 166.104187,413.024689 160.944305,413.870789
	C156.909348,414.532349 152.969360,415.969482 149.119705,417.414948
	C148.252914,417.740448 147.536728,419.501617 147.445847,420.656525
	C147.213028,423.615234 146.980911,426.669220 147.460175,429.567413
	C148.265488,434.437592 149.496994,439.165009 142.559036,439.889038
	C143.365570,442.792847 143.746384,444.901123 144.568069,446.820709
	C144.998672,447.826599 146.172577,449.168427 147.062683,449.208618
	C150.645203,449.370331 150.971634,451.660461 151.013885,454.750946
	C148.630005,458.756683 146.383606,462.467438 143.758774,465.887787
	C142.868958,467.047241 140.832016,468.274628 139.670776,467.997650
	C138.614716,467.745728 137.407715,465.519348 137.352234,464.120331
	C137.075668,457.144592 136.925201,450.143188 137.268524,443.177338
	C137.358994,441.342041 139.161621,439.424347 140.530548,437.851257
	C144.082275,433.769867 143.143082,429.131348 138.244370,426.917114
	C135.490768,425.672455 132.846817,424.185242 131.068069,423.275208
	C135.689697,419.340424 140.048233,415.849457 144.146164,412.075531
	C147.856384,408.658752 157.294357,406.655914 161.843170,408.661011
	C162.604065,408.996399 163.371704,409.592865 164.136734,409.593689
	C167.121475,409.596893 171.136871,410.563049 172.855499,409.028290
	C175.596725,406.580444 175.522964,402.408783 173.027496,398.635010
z" />
  <path fill="#F60404" opacity="1.000000" stroke="none" d="
M181.720734,383.251984
	C183.398804,386.678162 181.624374,389.325775 177.788116,389.232697
	C172.111359,389.094971 169.994293,391.999390 171.886749,397.833557
	C170.681961,397.232330 168.735809,396.607452 168.128098,395.340546
	C167.152679,393.307007 166.100967,390.411560 166.879913,388.697723
	C167.601624,387.109802 170.604843,386.361664 172.740479,385.662109
	C175.582489,384.731232 178.557220,384.205627 181.720734,383.251984
z" />
  <path fill="#F60404" opacity="1.000000" stroke="none" d="
M184.825043,379.083130
	C184.771622,379.169495 184.473572,379.396240 183.937103,379.777893
	C183.992615,379.696381 184.286514,379.459961 184.825043,379.083130
z" />
  <path fill="#CB2129" opacity="1.000000" stroke="none" d="
M358.018433,284.655151
	C356.945648,281.019806 354.821655,277.454987 357.453278,274.097717
	C358.123413,274.125366 358.793518,274.153015 359.463654,274.180664
	C359.064545,277.714569 358.665405,281.248474 358.018433,284.655151
z" />
  <path fill="#F60404" opacity="1.000000" stroke="none" d="
M127.067993,118.366318
	C130.038727,115.479767 133.209824,112.878326 136.650330,110.513885
	C137.250961,113.081100 137.582184,115.411301 137.913391,117.741516
	C140.398972,117.314476 142.890808,116.919060 145.364365,116.431099
	C145.807098,116.343765 146.179489,115.880539 146.575653,115.579437
	C152.074112,111.400505 153.147598,111.508362 158.052811,116.738335
	C152.647659,118.727554 147.213562,120.644135 141.865128,122.775673
	C140.946350,123.141838 139.909317,124.347015 139.759232,125.296211
	C139.283752,128.303543 139.202576,131.373215 138.930862,134.829041
	C138.892792,135.239288 138.426071,135.337143 138.196167,135.400314
	C133.508163,132.409363 128.394272,129.918686 129.502899,122.920532
	C129.704590,121.647446 128.060425,120.081940 127.067993,118.366318
z" />
  <path fill="#F60404" opacity="1.000000" stroke="none" d="
M80.855148,69.659760
	C77.487419,70.198753 73.921059,70.474739 69.528206,70.814674
	C72.012398,76.623695 75.823318,80.461258 80.291992,84.012177
	C82.319260,85.623085 83.435623,88.380325 84.854881,90.913284
	C81.859169,89.603584 78.889305,88.128731 76.123131,86.339058
	C74.684212,85.408089 73.561005,83.961876 72.373726,82.675888
	C70.746857,80.913757 69.194633,79.082710 67.301224,77.145096
	C66.184662,74.916931 64.529510,72.742088 64.724236,70.747879
	C65.385429,63.976368 71.040787,61.738983 76.533516,65.786201
	C77.998993,66.866013 79.287018,68.186661 80.855148,69.659760
z" />
  <path fill="#F60404" opacity="1.000000" stroke="none" d="
M86.141098,110.357834
	C92.390892,111.694443 98.780159,113.341759 105.577866,115.013290
	C103.967651,118.446304 101.314812,119.206696 97.595398,117.596985
	C93.466805,115.810188 88.252075,115.943451 86.141098,110.357834
z" />
  <path fill="#F60404" opacity="1.000000" stroke="none" d="
M106.405869,114.941399
	C108.168556,110.114616 112.660004,108.763901 117.032280,109.504150
	C120.470085,110.086197 124.739632,111.480736 125.056335,116.744843
	C119.425339,111.901917 113.341209,111.357887 106.405869,114.941399
z" />
  <path fill="#F60404" opacity="1.000000" stroke="none" d="
M84.861786,93.360992
	C87.519600,94.376701 87.990982,95.689873 86.651718,98.805656
	C85.345909,101.843628 86.065880,105.752342 85.926430,109.635971
	C82.259575,107.445091 81.509995,104.075974 82.996704,99.953819
	C83.726250,97.931053 84.174324,95.806770 84.861786,93.360992
z" />
  <path fill="#F60404" opacity="1.000000" stroke="none" d="
M106.194382,68.367279
	C103.059105,71.306366 100.324097,76.160751 95.218987,71.344933
	C94.882774,71.027771 93.587082,71.054832 93.422089,71.330872
	C91.249054,74.966255 87.470940,73.063370 84.561790,74.039520
	C80.914856,75.263214 80.510574,73.476730 81.042282,70.263840
	C83.436775,69.258705 86.536049,69.293434 87.959137,67.766235
	C90.519257,65.018822 92.611702,63.411701 96.487190,64.989510
	C98.027359,65.616554 100.194290,64.591881 101.848373,65.083946
	C103.403358,65.546532 104.658592,67.016762 106.194382,68.367279
z" />
  <path fill="#F60404" opacity="1.000000" stroke="none" d="
M124.594711,62.944122
	C120.988060,66.810905 117.028603,70.709373 112.708565,74.962868
	C111.192879,72.455765 110.289146,70.960899 109.177177,69.200577
	C109.713127,68.588554 110.760620,68.446396 111.153656,67.863182
	C114.377617,63.079334 119.017250,62.288765 124.594711,62.944122
z" />
  <path fill="#F60404" opacity="1.000000" stroke="none" d="
M138.680603,50.073780
	C140.600006,56.672180 140.417725,57.032703 134.093689,58.893478
	C133.846771,58.402851 133.875687,57.984032 133.936279,57.250862
	C135.444580,54.713650 136.921173,52.490788 138.680603,50.073780
z" />
  <path fill="#F60404" opacity="1.000000" stroke="none" d="
M132.630157,58.984375
	C130.571960,60.294582 128.136108,61.600792 125.319687,62.922600
	C127.376915,61.618927 129.814713,60.299652 132.630157,58.984375
z" />
  <path fill="#CB2129" opacity="1.000000" stroke="none" d="
M391.395569,459.925476
	C391.379913,461.661804 391.149689,463.181427 390.919464,464.701019
	C389.904266,464.474152 388.116089,464.426086 388.014709,463.987823
	C387.671326,462.503540 387.925262,460.881073 387.950928,459.311462
	C389.027618,459.443878 390.104279,459.576294 391.395569,459.925476
z" />
  <path fill="#F60404" opacity="1.000000" stroke="none" d="
M136.643402,149.016632
	C135.441605,153.993851 134.409164,159.370468 126.835907,158.638565
	C124.106224,158.374741 121.236267,159.562286 118.068878,159.942307
	C118.099899,155.324799 119.809891,153.569809 124.595047,155.471848
	C126.269302,156.137344 129.017426,155.156021 130.832031,154.137375
	C132.936615,152.955902 134.553619,150.905869 136.643402,149.016632
z" />
  <path fill="#F60404" opacity="1.000000" stroke="none" d="
M219.826263,292.170135
	C220.285721,291.234680 220.870087,290.544708 221.454453,289.854767
	C221.800140,290.513885 222.145844,291.173035 222.491547,291.832153
	C221.644745,292.026642 220.797943,292.221130 219.826263,292.170135
z" />
  <path fill="#DA2905" opacity="1.000000" stroke="none" d="
M158.340790,116.856659
	C153.147598,111.508362 152.074112,111.400505 146.575653,115.579437
	C146.179489,115.880539 145.807098,116.343765 145.364365,116.431099
	C142.890808,116.919060 140.398972,117.314476 137.913391,117.741516
	C137.582184,115.411301 137.250961,113.081100 136.962280,110.372482
	C139.537247,102.344467 134.130157,98.628326 129.213104,93.863037
	C129.129837,91.124931 129.206711,89.113861 129.283569,87.102783
	C130.280701,87.133263 131.278641,87.147232 132.274826,87.196747
	C143.744873,87.766937 143.979034,87.544327 148.415207,76.843773
	C149.033417,75.352638 150.543686,73.637695 151.959625,73.276978
	C152.923904,73.031319 154.839523,74.719597 155.622620,75.981819
	C156.819672,77.911308 157.704956,80.154724 158.187454,82.380859
	C159.074982,86.475807 160.942291,88.291061 165.475220,87.723412
	C168.497711,87.344910 171.721237,88.155594 174.788162,88.767822
	C175.903625,88.990494 177.509308,90.074348 177.646347,90.958290
	C177.786362,91.861534 176.583115,93.226463 175.645004,93.995285
	C172.949463,96.204376 170.090714,98.214310 166.822266,100.774841
	C166.221054,103.168579 166.093689,105.089981 165.966324,107.011391
	C166.233795,108.121101 166.501251,109.230820 166.925293,111.019859
	C166.691238,114.431946 166.300583,117.164703 165.909912,119.897461
	C165.909927,119.897461 166.004257,119.964142 165.616287,119.868172
	C163.868881,119.421959 162.509460,119.071716 161.150024,118.721481
	C160.309601,118.139313 159.469193,117.557152 158.340790,116.856659
M165.890121,90.532600
	C157.559631,90.605515 157.587662,90.596191 154.934189,82.614975
	C154.249298,80.554901 153.328049,78.573402 152.515381,76.555809
	C150.303467,79.794434 149.029556,82.825989 148.221130,85.976967
	C147.324844,89.470268 145.415298,90.908966 141.800568,90.651367
	C138.457733,90.413155 135.084549,90.600632 131.724731,90.600632
	C131.606598,91.105583 131.488464,91.610535 131.370331,92.115479
	C133.972244,94.083557 136.444000,96.263130 139.209747,97.964935
	C142.497055,99.987656 143.160370,102.405052 141.725418,105.891312
	C140.521591,108.815971 139.728470,111.909683 138.753525,114.928551
	C139.206314,115.195358 139.659103,115.462166 140.111908,115.728973
	C141.969055,114.476982 144.026733,113.439911 145.644058,111.930885
	C149.754639,108.095581 153.631561,107.412445 158.032394,111.579025
	C159.239502,112.721886 161.391022,112.867256 163.109161,113.470360
	C162.973694,111.656982 163.180420,109.734581 162.643463,108.049110
	C160.328568,100.782822 160.282974,100.859810 166.774368,96.619164
	C168.834534,95.273315 170.662094,93.571373 172.596100,92.032379
	C172.401749,91.638168 172.207397,91.243958 172.013062,90.849747
	C170.237091,90.739174 168.461136,90.628609 165.890121,90.532600
z" />
  <path fill="#F60404" opacity="1.000000" stroke="none" d="
M166.294525,119.940285
	C166.300583,117.164703 166.691238,114.431946 167.027267,111.346985
	C167.876312,111.400024 169.221222,111.563309 169.600983,112.255844
	C170.744049,114.340469 171.511261,116.631187 172.425079,118.841522
	C170.509766,119.222054 168.594467,119.602577 166.294525,119.940285
z" />
  <path fill="#F60404" opacity="1.000000" stroke="none" d="
M166.385590,107.008560
	C166.093689,105.089981 166.221054,103.168579 166.599060,101.023087
	C168.893280,102.018242 170.936890,103.237480 172.980484,104.456718
	C173.063629,104.892822 173.146774,105.328926 173.229904,105.765022
	C171.088226,106.178596 168.946533,106.592163 166.385590,107.008560
z" />
  <path fill="#F60404" opacity="1.000000" stroke="none" d="
M161.054749,119.066864
	C162.509460,119.071716 163.868881,119.421959 165.573669,119.827621
	C165.845276,120.200706 165.872742,120.609489 165.681763,120.821663
	C164.124893,122.551224 161.919067,125.966614 161.044403,125.657822
	C156.630585,124.099579 160.901627,121.590714 161.054749,119.066864
z" />
  <path fill="#F60404" opacity="1.000000" stroke="none" d="
M128.938736,87.222626
	C129.206711,89.113861 129.129837,91.124931 129.061295,93.570465
	C125.072861,92.058159 125.132988,89.821724 128.938736,87.222626
z" />
  <path fill="#F60404" opacity="1.000000" stroke="none" d="
M86.854103,81.871902
	C86.065956,81.689926 85.445000,81.349030 84.824051,81.008133
	C85.228851,80.616493 85.633659,80.224846 86.038467,79.833206
	C86.366074,80.459793 86.693687,81.086380 86.854103,81.871902
z" />
  <path fill="#F60404" opacity="1.000000" stroke="none" d="
M168.476242,132.910873
	C168.399353,132.515579 168.464905,132.167313 168.530457,131.819061
	C168.672989,131.864456 168.815521,131.909851 168.958069,131.955246
	C168.844940,132.289474 168.731796,132.623688 168.476242,132.910873
z" />
  <path fill="#FCD02C" opacity="1.000000" stroke="none" d="
M166.287659,90.525322
	C168.461136,90.628609 170.237091,90.739174 172.013062,90.849747
	C172.207397,91.243958 172.401749,91.638168 172.596100,92.032379
	C170.662094,93.571373 168.834534,95.273315 166.774368,96.619164
	C160.282974,100.859810 160.328568,100.782822 162.643463,108.049110
	C163.180420,109.734581 162.973694,111.656982 163.109161,113.470352
	C161.391022,112.867256 159.239502,112.721886 158.032394,111.579025
	C153.631561,107.412445 149.754639,108.095581 145.644058,111.930885
	C144.026733,113.439911 141.969055,114.476982 140.111908,115.728973
	C139.659103,115.462166 139.206314,115.195358 138.753525,114.928551
	C139.728470,111.909683 140.521591,108.815971 141.725418,105.891312
	C143.160370,102.405052 142.497055,99.987656 139.209747,97.964935
	C136.444000,96.263130 133.972244,94.083557 131.370331,92.115479
	C131.488464,91.610535 131.606598,91.105583 131.724731,90.600632
	C135.084549,90.600632 138.457733,90.413155 141.800568,90.651367
	C145.415298,90.908966 147.324844,89.470268 148.221130,85.976967
	C149.029556,82.825989 150.303467,79.794434 152.515381,76.555809
	C153.328049,78.573402 154.249298,80.554901 154.934189,82.614975
	C157.587662,90.596191 157.559631,90.605515 166.287659,90.525322
M158.898468,92.508118
	C156.523407,90.679649 154.148346,88.851181 152.160187,87.320580
	C148.427765,89.844582 144.743301,92.336151 140.772949,95.021042
	C142.188553,96.940773 144.359650,98.729271 144.879700,100.911263
	C145.413071,103.149208 144.331650,105.772003 143.730530,109.709793
	C149.160583,105.774078 153.752701,103.256439 158.203949,107.560120
	C159.726425,102.709450 161.056595,98.471413 162.543457,93.734192
	C161.956863,93.520348 160.784805,93.093079 158.898468,92.508118
z" />
  <path fill="#FAFA09" opacity="1.000000" stroke="none" d="
M159.255615,92.586960
	C160.784805,93.093079 161.956863,93.520348 162.543457,93.734192
	C161.056595,98.471413 159.726425,102.709450 158.203949,107.560120
	C153.752701,103.256439 149.160583,105.774078 143.730530,109.709793
	C144.331650,105.772003 145.413071,103.149208 144.879700,100.911263
	C144.359650,98.729271 142.188553,96.940773 140.772949,95.021042
	C144.743301,92.336151 148.427765,89.844582 152.160187,87.320580
	C154.148346,88.851181 156.523407,90.679649 159.255615,92.586960
z" />
</svg>